<?xml version="1.0" encoding="UTF-8" standalone="no"?>
<!DOCTYPE svg PUBLIC "-//W3C//DTD SVG 1.1//EN" "http://www.w3.org/Graphics/SVG/1.1/DTD/svg11.dtd">
<svg width="100%" height="100%" viewBox="0 0 448 173" version="1.1" xmlns="http://www.w3.org/2000/svg" xmlns:xlink="http://www.w3.org/1999/xlink" xml:space="preserve" xmlns:serif="http://www.serif.com/" style="fill-rule:evenodd;clip-rule:evenodd;stroke-linejoin:round;stroke-miterlimit:2;">
    <rect id="Artboard2" x="0" y="0" width="448" height="173" style="fill:none;"/>
    <g transform="matrix(5.45977,0,0,5.45977,-945.907,-688.245)">
        <g transform="matrix(7.32631,0,0,7.32631,212.112,139.363)">
            <path d="M0.038,-0l0,-0.043l0.088,-0.019l-0.01,0.015l0,-0.431l0.011,0.015l-0.089,-0.019l-0,-0.043l0.14,-0.007l0.011,0.098l-0.011,-0.004c0.03,-0.031 0.059,-0.056 0.088,-0.073c0.029,-0.017 0.06,-0.026 0.094,-0.026c0.021,0 0.044,0.003 0.067,0.01l-0.006,0.14l-0.05,0l-0.012,-0.099l0.009,0.018c-0.005,-0.001 -0.01,-0.002 -0.015,-0.003c-0.005,-0.001 -0.011,-0.001 -0.016,-0.001c-0.027,-0 -0.053,0.008 -0.078,0.024c-0.025,0.016 -0.048,0.037 -0.071,0.062l0.008,-0.024l0,0.363l-0.012,-0.015l0.109,0.019l0,0.043l-0.255,-0Z" style="fill-rule:nonzero;"/>
        </g>
        <g transform="matrix(7.32631,0,0,7.32631,215.13,139.363)">
            <path d="M0.276,0.009c-0.045,0 -0.084,-0.01 -0.119,-0.03c-0.034,-0.021 -0.061,-0.051 -0.08,-0.09c-0.019,-0.039 -0.029,-0.087 -0.029,-0.144c-0,-0.058 0.01,-0.108 0.03,-0.15c0.02,-0.042 0.048,-0.074 0.085,-0.097c0.037,-0.023 0.08,-0.035 0.129,-0.035c0.047,0 0.085,0.01 0.115,0.03c0.031,0.019 0.053,0.046 0.068,0.081c0.015,0.035 0.023,0.074 0.023,0.119c-0,0.007 -0,0.015 -0.001,0.022c-0.001,0.007 -0.002,0.016 -0.003,0.027l-0.385,-0l-0,-0.057l0.315,-0l-0.009,0.006c0.001,-0.03 -0.003,-0.058 -0.011,-0.083c-0.008,-0.025 -0.022,-0.046 -0.041,-0.061c-0.019,-0.015 -0.045,-0.023 -0.077,-0.023c-0.034,-0 -0.063,0.009 -0.086,0.027c-0.023,0.018 -0.041,0.043 -0.052,0.074c-0.011,0.031 -0.017,0.068 -0.017,0.109c0,0.044 0.006,0.082 0.019,0.114c0.013,0.031 0.031,0.056 0.055,0.073c0.025,0.017 0.055,0.026 0.09,0.026c0.025,-0 0.052,-0.005 0.081,-0.014c0.029,-0.01 0.06,-0.025 0.091,-0.045l0.029,0.045c-0.037,0.025 -0.075,0.044 -0.112,0.057c-0.037,0.013 -0.073,0.019 -0.108,0.019Z" style="fill-rule:nonzero;"/>
        </g>
        <g transform="matrix(7.32631,0,0,7.32631,219.138,139.363)">
            <path d="M0.038,-0l0,-0.043l0.09,-0.02l-0.012,0.015l0,-0.43l0.012,0.015l-0.09,-0.019l-0,-0.043l0.14,-0.007l0.011,0.098l-0.011,-0.004c0.033,-0.034 0.068,-0.059 0.104,-0.075c0.037,-0.016 0.071,-0.024 0.104,-0.024c0.044,0 0.08,0.014 0.109,0.041c0.029,0.027 0.044,0.068 0.043,0.125l0,0.323l-0.01,-0.014l0.088,0.019l0,0.043l-0.233,0l0,-0.043l0.087,-0.019l-0.012,0.015l0,-0.307c0,-0.041 -0.009,-0.072 -0.028,-0.091c-0.019,-0.019 -0.044,-0.029 -0.075,-0.029c-0.025,0 -0.052,0.007 -0.081,0.02c-0.029,0.013 -0.057,0.034 -0.085,0.062l0.007,-0.016l0,0.361l-0.01,-0.014l0.085,0.018l0,0.043l-0.233,0Z" style="fill-rule:nonzero;"/>
        </g>
        <g transform="matrix(7.32631,0,0,7.32631,223.775,139.363)">
            <path d="M0.276,0.009c-0.045,0 -0.084,-0.01 -0.119,-0.03c-0.034,-0.021 -0.061,-0.051 -0.08,-0.09c-0.019,-0.039 -0.029,-0.087 -0.029,-0.144c-0,-0.058 0.01,-0.108 0.03,-0.15c0.02,-0.042 0.048,-0.074 0.085,-0.097c0.037,-0.023 0.08,-0.035 0.129,-0.035c0.047,0 0.085,0.01 0.115,0.03c0.031,0.019 0.053,0.046 0.068,0.081c0.015,0.035 0.023,0.074 0.023,0.119c-0,0.007 -0,0.015 -0.001,0.022c-0.001,0.007 -0.002,0.016 -0.003,0.027l-0.385,-0l-0,-0.057l0.315,-0l-0.009,0.006c0.001,-0.03 -0.003,-0.058 -0.011,-0.083c-0.008,-0.025 -0.022,-0.046 -0.041,-0.061c-0.019,-0.015 -0.045,-0.023 -0.077,-0.023c-0.034,-0 -0.063,0.009 -0.086,0.027c-0.023,0.018 -0.041,0.043 -0.052,0.074c-0.011,0.031 -0.017,0.068 -0.017,0.109c0,0.044 0.006,0.082 0.019,0.114c0.013,0.031 0.031,0.056 0.055,0.073c0.025,0.017 0.055,0.026 0.09,0.026c0.025,-0 0.052,-0.005 0.081,-0.014c0.029,-0.01 0.06,-0.025 0.091,-0.045l0.029,0.045c-0.037,0.025 -0.075,0.044 -0.112,0.057c-0.037,0.013 -0.073,0.019 -0.108,0.019Z" style="fill-rule:nonzero;"/>
        </g>
        <g transform="matrix(7.32631,0,0,7.32631,227.6,139.363)">
            <path d="M0.603,-0.525l0.201,-0.007l0,0.044l-0.07,0.017l0.014,-0.012l-0.137,0.485l-0.088,0l-0.13,-0.472l0.016,0l-0.138,0.472l-0.088,0l-0.131,-0.483l0.012,0.012l-0.069,-0.013l-0,-0.043l0.216,-0.007l-0,0.044l-0.091,0.016l0.009,-0.01l0.111,0.435l-0.013,0l0.134,-0.479l0.087,-0.006l0.129,0.488l-0.013,0l0.117,-0.436l0.009,0.011l-0.087,-0.013l-0,-0.043Z" style="fill-rule:nonzero;"/>
        </g>
        <g transform="matrix(7.32631,0,0,7.32631,233.27,139.363)">
            <path d="M0.276,0.009c-0.045,0 -0.084,-0.01 -0.119,-0.03c-0.034,-0.021 -0.061,-0.051 -0.08,-0.09c-0.019,-0.039 -0.029,-0.087 -0.029,-0.144c-0,-0.058 0.01,-0.108 0.03,-0.15c0.02,-0.042 0.048,-0.074 0.085,-0.097c0.037,-0.023 0.08,-0.035 0.129,-0.035c0.047,0 0.085,0.01 0.115,0.03c0.031,0.019 0.053,0.046 0.068,0.081c0.015,0.035 0.023,0.074 0.023,0.119c-0,0.007 -0,0.015 -0.001,0.022c-0.001,0.007 -0.002,0.016 -0.003,0.027l-0.385,-0l-0,-0.057l0.315,-0l-0.009,0.006c0.001,-0.03 -0.003,-0.058 -0.011,-0.083c-0.008,-0.025 -0.022,-0.046 -0.041,-0.061c-0.019,-0.015 -0.045,-0.023 -0.077,-0.023c-0.034,-0 -0.063,0.009 -0.086,0.027c-0.023,0.018 -0.041,0.043 -0.052,0.074c-0.011,0.031 -0.017,0.068 -0.017,0.109c0,0.044 0.006,0.082 0.019,0.114c0.013,0.031 0.031,0.056 0.055,0.073c0.025,0.017 0.055,0.026 0.09,0.026c0.025,-0 0.052,-0.005 0.081,-0.014c0.029,-0.01 0.06,-0.025 0.091,-0.045l0.029,0.045c-0.037,0.025 -0.075,0.044 -0.112,0.057c-0.037,0.013 -0.073,0.019 -0.108,0.019Z" style="fill-rule:nonzero;"/>
        </g>
        <g transform="matrix(7.32631,0,0,7.32631,236.985,139.363)">
            <path d="M0.01,-0l0,-0.043l0.087,-0.016l-0.022,0.013l0.161,-0.234l0.019,-0.004l0.161,-0.241l0.112,-0.007l0,0.044l-0.086,0.019l0.025,-0.016l-0.157,0.223l-0.017,0.004l-0.171,0.258l-0.112,-0Zm0.305,-0l0,-0.043l0.074,-0.012l-0.005,0.012l-0.142,-0.207l-0.164,-0.235l0.02,0.016l-0.077,-0.013l0,-0.043l0.214,-0.007l0,0.044l-0.078,0.014l0.007,-0.014l0.133,0.194l0.173,0.248l-0.017,-0.012l0.085,0.015l0,0.043l-0.223,0Z" style="fill-rule:nonzero;"/>
        </g>
        <g transform="matrix(10.44,0,0,10.44,211.453,149.437)">
            <path d="M0.183,-0.527c-0,0.021 0.007,0.039 0.02,0.053c0.013,0.013 0.031,0.025 0.052,0.034c0.022,0.009 0.046,0.018 0.072,0.027c0.027,0.008 0.053,0.017 0.078,0.027c0.026,0.01 0.05,0.023 0.071,0.038c0.022,0.015 0.04,0.035 0.053,0.059c0.013,0.023 0.02,0.053 0.02,0.088c0,0.049 -0.013,0.089 -0.038,0.12c-0.025,0.031 -0.058,0.055 -0.1,0.07c-0.041,0.015 -0.087,0.023 -0.137,0.023c-0.035,0 -0.07,-0.004 -0.107,-0.011c-0.036,-0.007 -0.071,-0.017 -0.106,-0.031l0.005,-0.182l0.072,0l0.019,0.124l-0.012,-0.022c0.021,0.01 0.044,0.018 0.067,0.023c0.023,0.005 0.046,0.007 0.068,0.007c0.027,0 0.052,-0.004 0.074,-0.011c0.023,-0.008 0.041,-0.02 0.054,-0.035c0.013,-0.016 0.02,-0.036 0.02,-0.059c-0,-0.023 -0.007,-0.041 -0.02,-0.055c-0.013,-0.015 -0.03,-0.027 -0.052,-0.036c-0.021,-0.01 -0.045,-0.019 -0.071,-0.026c-0.026,-0.008 -0.052,-0.017 -0.078,-0.026c-0.026,-0.01 -0.05,-0.022 -0.072,-0.037c-0.021,-0.015 -0.039,-0.034 -0.052,-0.057c-0.013,-0.023 -0.019,-0.053 -0.019,-0.089c0,-0.045 0.011,-0.083 0.033,-0.112c0.022,-0.03 0.052,-0.052 0.09,-0.067c0.038,-0.015 0.081,-0.023 0.128,-0.023c0.033,0 0.068,0.004 0.104,0.011c0.037,0.007 0.073,0.017 0.109,0.032l-0.01,0.169l-0.074,-0l-0.019,-0.113l0.015,0.015c-0.018,-0.007 -0.037,-0.013 -0.058,-0.017c-0.02,-0.004 -0.04,-0.006 -0.061,-0.006c-0.024,-0 -0.047,0.003 -0.068,0.01c-0.021,0.006 -0.038,0.016 -0.051,0.03c-0.013,0.014 -0.019,0.032 -0.019,0.055Z" style="fill-rule:nonzero;"/>
        </g>
        <g transform="matrix(10.44,0,0,10.44,217.518,149.437)">
            <path d="M0.275,0.011c-0.047,0 -0.088,-0.01 -0.124,-0.03c-0.036,-0.021 -0.064,-0.051 -0.084,-0.091c-0.02,-0.04 -0.03,-0.089 -0.03,-0.147c-0,-0.059 0.01,-0.11 0.031,-0.153c0.021,-0.043 0.051,-0.075 0.089,-0.098c0.039,-0.023 0.084,-0.035 0.137,-0.035c0.05,0 0.091,0.01 0.122,0.031c0.032,0.02 0.056,0.048 0.071,0.083c0.015,0.035 0.023,0.075 0.023,0.12c0,0.01 -0,0.02 -0.001,0.03c-0.001,0.01 -0.002,0.021 -0.004,0.033l-0.372,0l0,-0.076l0.267,0l-0.014,0.009c0.001,-0.027 -0.002,-0.051 -0.009,-0.072c-0.006,-0.021 -0.017,-0.038 -0.032,-0.051c-0.015,-0.013 -0.036,-0.019 -0.061,-0.019c-0.029,0 -0.052,0.008 -0.071,0.024c-0.018,0.016 -0.031,0.038 -0.04,0.065c-0.008,0.027 -0.012,0.058 -0.012,0.093c0,0.038 0.005,0.072 0.015,0.101c0.01,0.029 0.026,0.051 0.047,0.068c0.021,0.017 0.048,0.025 0.081,0.025c0.023,0 0.049,-0.004 0.076,-0.013c0.027,-0.009 0.056,-0.022 0.085,-0.04l0.041,0.065c-0.038,0.026 -0.077,0.046 -0.116,0.059c-0.039,0.013 -0.078,0.019 -0.115,0.019Z" style="fill-rule:nonzero;"/>
        </g>
        <g transform="matrix(10.44,0,0,10.44,223.239,149.437)">
            <path d="M0.032,-0l0,-0.062l0.083,-0.022l-0.012,0.019l0,-0.4l0.014,0.021l-0.085,-0.023l0,-0.062l0.164,-0.008l0.016,0.096l-0.016,-0.004c0.03,-0.031 0.059,-0.055 0.088,-0.072c0.029,-0.017 0.061,-0.026 0.095,-0.026c0.021,0 0.044,0.003 0.067,0.01l-0.008,0.168l-0.071,0l-0.013,-0.103l0.011,0.024c-0.004,-0.001 -0.008,-0.002 -0.013,-0.003c-0.005,-0.001 -0.009,-0.001 -0.014,-0.001c-0.023,0 -0.045,0.007 -0.067,0.021c-0.021,0.013 -0.041,0.031 -0.058,0.053l0.01,-0.033l0,0.342l-0.015,-0.019l0.102,0.022l0,0.062l-0.278,0Z" style="fill-rule:nonzero;"/>
        </g>
        <g transform="matrix(10.44,0,0,10.44,228.052,149.437)">
            <path d="M0.322,-0.528l0.22,-0.008l0,0.062l-0.06,0.023l0.017,-0.019l-0.168,0.472l-0.141,-0l-0.149,-0.468l0.018,0.015l-0.063,-0.015l-0,-0.062l0.236,-0.008l-0,0.062l-0.079,0.02l0.01,-0.016l0.112,0.396l-0.01,0l0.124,-0.389l0.007,0.01l-0.074,-0.013l-0,-0.062Z" style="fill-rule:nonzero;"/>
        </g>
        <g transform="matrix(10.44,0,0,10.44,233.408,149.437)">
            <path d="M0.275,0.011c-0.047,0 -0.088,-0.01 -0.124,-0.03c-0.036,-0.021 -0.064,-0.051 -0.084,-0.091c-0.02,-0.04 -0.03,-0.089 -0.03,-0.147c-0,-0.059 0.01,-0.11 0.031,-0.153c0.021,-0.043 0.051,-0.075 0.089,-0.098c0.039,-0.023 0.084,-0.035 0.137,-0.035c0.05,0 0.091,0.01 0.122,0.031c0.032,0.02 0.056,0.048 0.071,0.083c0.015,0.035 0.023,0.075 0.023,0.12c0,0.01 -0,0.02 -0.001,0.03c-0.001,0.01 -0.002,0.021 -0.004,0.033l-0.372,0l0,-0.076l0.267,0l-0.014,0.009c0.001,-0.027 -0.002,-0.051 -0.009,-0.072c-0.006,-0.021 -0.017,-0.038 -0.032,-0.051c-0.015,-0.013 -0.036,-0.019 -0.061,-0.019c-0.029,0 -0.052,0.008 -0.071,0.024c-0.018,0.016 -0.031,0.038 -0.04,0.065c-0.008,0.027 -0.012,0.058 -0.012,0.093c0,0.038 0.005,0.072 0.015,0.101c0.01,0.029 0.026,0.051 0.047,0.068c0.021,0.017 0.048,0.025 0.081,0.025c0.023,0 0.049,-0.004 0.076,-0.013c0.027,-0.009 0.056,-0.022 0.085,-0.04l0.041,0.065c-0.038,0.026 -0.077,0.046 -0.116,0.059c-0.039,0.013 -0.078,0.019 -0.115,0.019Z" style="fill-rule:nonzero;"/>
        </g>
        <g transform="matrix(10.44,0,0,10.44,239.129,149.437)">
            <path d="M0.032,-0l0,-0.062l0.083,-0.022l-0.012,0.019l0,-0.4l0.014,0.021l-0.085,-0.023l0,-0.062l0.164,-0.008l0.016,0.096l-0.016,-0.004c0.03,-0.031 0.059,-0.055 0.088,-0.072c0.029,-0.017 0.061,-0.026 0.095,-0.026c0.021,0 0.044,0.003 0.067,0.01l-0.008,0.168l-0.071,0l-0.013,-0.103l0.011,0.024c-0.004,-0.001 -0.008,-0.002 -0.013,-0.003c-0.005,-0.001 -0.009,-0.001 -0.014,-0.001c-0.023,0 -0.045,0.007 -0.067,0.021c-0.021,0.013 -0.041,0.031 -0.058,0.053l0.01,-0.033l0,0.342l-0.015,-0.019l0.102,0.022l0,0.062l-0.278,0Z" style="fill-rule:nonzero;"/>
        </g>
    </g>
    <path d="M148.271,117.697c0.807,0.18 1.519,0.676 1.967,1.392l21.618,34.6c0.31,0.496 0.474,1.069 0.474,1.654l-0,12c-0,1.725 -1.398,3.122 -3.122,3.122l-156,0c-1.724,0 -3.122,-1.397 -3.122,-3.122l-0,-12c-0,-0.559 0.15,-1.108 0.435,-1.589l20.471,-34.6c0.561,-0.95 1.583,-1.533 2.687,-1.533l0.466,0l-0,-29.823c-0,-3.821 2.606,-7.964 8.367,-11.156c2.244,-1.244 5.022,-2.408 8.249,-3.453c-3.928,-6.831 -6.175,-14.75 -6.175,-23.189c-0,-25.731 20.891,-46.622 46.622,-46.622c25.731,-0 46.622,20.891 46.622,46.622c-0,8.439 -2.247,16.358 -6.175,23.189c3.227,1.045 6.005,2.209 8.249,3.453c5.761,3.192 8.367,7.335 8.367,11.156l0,29.899Z" style="fill:#563f71;fill-opacity:0.32;"/>
    <g>
        <path d="M147.59,120.744l21.618,34.599l-0,12l-156,0l-0,-12l20.471,-34.599l113.911,-0Z" style="fill:#563f71;"/>
        <g>
            <path d="M39.003,87.798c-0,-8.274 23.566,-15.082 52.205,-15.082c28.639,-0 52.205,6.808 52.205,15.082l-0,45.245c-0,8.274 -23.566,15.082 -52.205,15.082c-28.639,0 -52.205,-6.808 -52.205,-15.082l-0,-45.245Z" style="fill:#fff;stroke:#563f71;stroke-width:3.47px;"/>
            <path d="M39.003,87.798c-0,8.273 23.566,15.082 52.205,15.082c28.639,-0 52.205,-6.809 52.205,-15.082l-0,7.541c-0,8.273 -23.566,15.081 -52.205,15.081c-28.639,0 -52.205,-6.808 -52.205,-15.081l-0,7.541c-0,8.273 23.566,15.081 52.205,15.081c28.639,0 52.205,-6.808 52.205,-15.081" style="fill:none;stroke:#563f71;stroke-width:3.47px;"/>
        </g>
        <circle cx="91.208" cy="50" r="43.5" style="fill:#fff;fill-opacity:0.85;"/>
        <path d="M110.593,17.073l0.008,0.005l0.53,-1.956l0.323,0.186l-0.521,1.961l0.007,0.005l0.53,-1.957c18.96,11.077 25.504,35.752 14.525,54.768c-11.018,19.084 -35.788,25.721 -54.872,14.703c-19.083,-11.018 -25.721,-35.788 -14.703,-54.872c10.979,-19.016 35.621,-25.686 54.693,-14.805l-0.52,1.962Zm5.45,6.533c1.288,6.654 1.497,13.062 0.71,19.091c3.261,0.453 6.597,0.579 9.962,0.354c-1.441,-7.317 -5.099,-14.175 -10.672,-19.445Zm11.225,23.335c-3.773,0.273 -7.513,0.137 -11.167,-0.379c-0.947,4.569 -2.49,8.89 -4.588,12.9l12.021,6.941c3.133,-6.178 4.31,-12.921 3.734,-19.462Zm-5.693,22.855l-12.017,-6.938c-2.603,4.123 -5.839,7.869 -9.667,11.155c2.223,2.805 4.18,5.862 5.821,9.14c6.312,-2.741 11.894,-7.272 15.863,-13.357Zm-19.559,14.732c-1.478,-2.889 -3.221,-5.589 -5.192,-8.076c-4.61,3.4 -9.943,6.201 -15.94,8.288c6.993,2.059 14.361,1.901 21.132,-0.212Zm-35.245,-7.761c-1.218,-6.374 -1.453,-12.521 -0.775,-18.328c-3.299,-0.521 -6.679,-0.709 -10.094,-0.535c1.603,7.131 5.321,13.773 10.869,18.863Zm-11.527,-22.751c3.84,-0.229 7.641,-0.035 11.348,0.551c0.938,-4.885 2.546,-9.495 4.777,-13.757l-12.489,-7.21c-3.285,6.479 -4.418,13.579 -3.636,20.416Zm5.596,-23.81l12.485,7.209c2.384,-3.777 5.295,-7.239 8.703,-10.325c-2.394,-3.005 -4.481,-6.3 -6.2,-9.849c-5.954,2.773 -11.205,7.164 -14.988,12.965Zm18.633,-14.431c1.553,3.162 3.422,6.103 5.558,8.795c4.858,-3.781 10.563,-6.877 17.038,-9.146c-7.474,-2.329 -15.404,-2.104 -22.596,0.351Zm21.201,21.749c3.837,2.016 7.944,3.529 12.215,4.477c0.882,-6.966 0.334,-14.476 -1.768,-22.29c-0.039,-0.026 -0.079,-0.052 -0.118,-0.078l-10.329,17.891Zm6.852,-19.706c-7.72,2.149 -14.411,5.464 -19.934,9.728c2.884,3.09 6.145,5.781 9.688,8.018l10.246,-17.746Zm4.714,28.052c-4.734,-1.032 -9.284,-2.706 -13.526,-4.951l-4.83,8.365l14.232,8.217c1.878,-3.623 3.262,-7.518 4.124,-11.631Zm-6.079,15.027l-14.237,-8.219l-5.406,9.364c3.972,2.492 7.618,5.511 10.824,8.99c3.483,-2.989 6.436,-6.39 8.819,-10.135Zm-11.901,12.573c-2.888,-3.096 -6.153,-5.792 -9.702,-8.033l-9.752,16.891c0.077,0.039 0.153,0.077 0.23,0.115c7.38,-1.989 13.829,-5.043 19.224,-8.973Zm-13.096,-9.993c-3.565,-1.873 -7.363,-3.312 -11.309,-4.267c-0.725,6.575 -0.196,13.616 1.689,20.931l9.62,-16.664Zm-10.724,-8.155c4.432,1.042 8.694,2.648 12.684,4.76l5.407,-9.364l-13.765,-7.946c-2.02,3.893 -3.473,8.099 -4.326,12.55Zm6.282,-15.946l13.768,7.949l4.83,-8.366c-3.935,-2.469 -7.551,-5.455 -10.735,-8.894c-3.068,2.789 -5.699,5.909 -7.863,9.311Z" style="fill:#563f71;"/>
    </g>
</svg>
