<?xml version="1.0" encoding="UTF-8" standalone="no"?>
<!DOCTYPE svg PUBLIC "-//W3C//DTD SVG 1.1//EN" "http://www.w3.org/Graphics/SVG/1.1/DTD/svg11.dtd">
<svg width="100%" height="100%" viewBox="0 0 256 256" version="1.1" xmlns="http://www.w3.org/2000/svg" xmlns:xlink="http://www.w3.org/1999/xlink" xml:space="preserve" xmlns:serif="http://www.serif.com/" style="fill-rule:evenodd;clip-rule:evenodd;stroke-linejoin:round;stroke-miterlimit:2;">
    <rect id="Artboard3" x="0" y="0" width="256" height="256" style="fill:none;"/>
    <g>
        <path d="M210.574,177.533l31.66,50.673l0,17.575l-228.468,-0l-0,-17.575l29.98,-50.673l166.828,0Z" style="fill:#563f71;"/>
        <g>
            <path d="M51.544,129.283c-0,-12.117 34.513,-22.088 76.456,-22.088c41.943,-0 76.456,9.971 76.456,22.088l0,66.264c0,12.117 -34.513,22.088 -76.456,22.088c-41.943,0 -76.456,-9.971 -76.456,-22.088l-0,-66.264Z" style="fill:#fff;stroke:#563f71;stroke-width:3.47px;"/>
            <path d="M51.544,129.283c-0,12.117 34.513,22.088 76.456,22.088c41.943,-0 76.456,-9.971 76.456,-22.088l0,11.044c0,12.117 -34.513,22.088 -76.456,22.088c-41.943,-0 -76.456,-9.971 -76.456,-22.088l-0,11.044c-0,12.117 34.513,22.088 76.456,22.088c41.943,0 76.456,-9.971 76.456,-22.088" style="fill:none;stroke:#563f71;stroke-width:3.47px;"/>
        </g>
        <circle cx="128" cy="73.927" r="63.707" style="fill:#fff;fill-opacity:0.85;"/>
        <path d="M156.39,25.704l0.012,0.007l0.777,-2.865l0.472,0.272l-0.763,2.874l0.011,0.006l0.776,-2.866c27.767,16.222 37.351,52.36 21.272,80.21c-16.137,27.949 -52.413,37.669 -80.362,21.533c-27.949,-16.136 -37.669,-52.413 -21.533,-80.361c16.08,-27.85 52.168,-37.62 80.1,-21.683l-0.762,2.873Zm7.982,9.568c1.887,9.745 2.192,19.129 1.039,27.959c4.777,0.663 9.662,0.848 14.591,0.518c-2.112,-10.715 -7.468,-20.759 -15.63,-28.477Zm16.44,34.174c-5.527,0.401 -11.004,0.201 -16.355,-0.554c-1.388,6.691 -3.647,13.019 -6.719,18.893l17.605,10.164c4.588,-9.047 6.311,-18.922 5.469,-28.503Zm-8.339,33.473l-17.599,-10.161c-3.811,6.038 -8.552,11.524 -14.158,16.336c3.257,4.109 6.123,8.585 8.526,13.387c9.244,-4.014 17.42,-10.65 23.231,-19.562Zm-28.645,21.575c-2.163,-4.231 -4.717,-8.184 -7.603,-11.827c-6.751,4.979 -14.562,9.081 -23.345,12.138c10.242,3.015 21.033,2.784 30.948,-0.311Zm-51.616,-11.366c-1.785,-9.334 -2.128,-18.337 -1.136,-26.841c-4.832,-0.765 -9.782,-1.039 -14.783,-0.784c2.347,10.443 7.792,20.17 15.919,27.625Zm-16.882,-33.32c5.623,-0.335 11.19,-0.051 16.619,0.807c1.374,-7.153 3.729,-13.905 6.997,-20.147l-18.291,-10.56c-4.811,9.489 -6.471,19.887 -5.325,29.9Zm8.195,-34.87l18.285,10.557c3.491,-5.531 7.755,-10.602 12.746,-15.121c-3.506,-4.401 -6.563,-9.226 -9.081,-14.424c-8.719,4.061 -16.409,10.491 -21.95,18.988Zm27.288,-21.135c2.275,4.63 5.013,8.938 8.14,12.88c7.115,-5.537 15.47,-10.072 24.954,-13.394c-10.947,-3.411 -22.561,-3.082 -33.094,0.514Zm31.05,31.852c5.62,2.953 11.634,5.169 17.889,6.557c1.292,-10.203 0.49,-21.2 -2.588,-32.645c-0.058,-0.038 -0.116,-0.076 -0.174,-0.114l-15.127,26.202Zm10.035,-28.86c-11.306,3.147 -21.105,8.003 -29.193,14.247c4.223,4.525 8.999,8.466 14.188,11.743l15.005,-25.99Zm6.904,41.083c-6.933,-1.511 -13.596,-3.963 -19.81,-7.251l-7.073,12.251l20.844,12.034c2.75,-5.306 4.777,-11.01 6.039,-17.034Zm-8.903,22.008l-20.85,-12.037l-7.917,13.714c5.816,3.649 11.156,8.071 15.852,13.166c5.1,-4.378 9.426,-9.358 12.915,-14.843Zm-17.43,18.414c-4.228,-4.534 -9.011,-8.483 -14.208,-11.766l-14.282,24.738c0.112,0.057 0.224,0.113 0.336,0.169c10.81,-2.913 20.254,-7.387 28.154,-13.141Zm-19.178,-14.635c-5.222,-2.744 -10.784,-4.851 -16.563,-6.25c-1.062,9.629 -0.287,19.942 2.473,30.654l14.09,-24.404Zm-15.707,-11.944c6.491,1.526 12.733,3.879 18.577,6.972l7.918,-13.714l-20.158,-11.638c-2.959,5.702 -5.087,11.861 -6.337,18.38Zm9.201,-23.354l20.164,11.641l7.073,-12.251c-5.763,-3.616 -11.058,-7.989 -15.722,-13.026c-4.493,4.085 -8.346,8.653 -11.515,13.636Z" style="fill:#563f71;"/>
    </g>
</svg>
